<?xml version="1.0" standalone="no"?>
<!DOCTYPE svg PUBLIC "-//W3C//DTD SVG 20010904//EN"
 "http://www.w3.org/TR/2001/REC-SVG-20010904/DTD/svg10.dtd">
<svg version="1.0" xmlns="http://www.w3.org/2000/svg"
 width="1280.000000pt" height="984.000000pt" viewBox="0 0 1280.000000 984.000000"
 preserveAspectRatio="xMidYMid meet">
<metadata>
Created by potrace 1.16, written by Peter Selinger 2001-2019
</metadata>
<g transform="translate(0.000000,984.000000) scale(0.100000,-0.100000)"
fill="#000000" stroke="none">
<path d="M10359 9162 c-58 -37 -106 -93 -138 -162 -24 -50 -26 -65 -25 -169
l2 -114 -27 34 c-115 149 -324 381 -352 391 -78 29 -166 -147 -139 -279 13
-65 35 -105 95 -174 89 -103 126 -149 119 -149 -4 0 -68 31 -143 69 -165 83
-462 204 -493 199 -33 -5 -48 -44 -48 -129 0 -65 4 -85 30 -137 40 -79 80
-113 201 -169 55 -25 97 -48 95 -50 -2 -3 -76 2 -164 11 -267 27 -292 22 -292
-55 0 -75 29 -139 89 -200 64 -64 110 -82 234 -95 37 -3 67 -9 67 -13 0 -7
-15 -14 -155 -78 -55 -25 -108 -52 -117 -60 -25 -22 -22 -55 8 -118 39 -84
117 -135 205 -135 22 0 39 -2 39 -6 0 -3 -31 -58 -69 -122 -112 -189 -174
-338 -231 -556 l-13 -48 -36 6 c-73 13 -74 13 -98 -29 -41 -72 -58 -174 -57
-345 2 -324 93 -601 280 -850 45 -59 300 -323 348 -358 16 -12 27 -24 25 -27
-3 -2 -71 23 -152 56 -240 97 -303 106 -367 52 -32 -26 -70 -91 -70 -117 0
-28 189 -113 645 -293 620 -244 912 -348 1600 -570 94 -30 208 -68 255 -83
114 -39 208 -54 277 -45 52 6 62 12 121 68 67 64 92 102 92 136 0 15 -10 23
-42 32 -102 28 -656 206 -666 214 -2 2 -12 67 -22 146 -45 345 -159 785 -296
1149 -159 423 -327 727 -516 935 -93 103 -102 119 -102 195 0 113 82 295 173
384 39 38 40 39 99 32 144 -16 310 -80 752 -288 195 -92 424 -215 517 -279 45
-31 71 -39 37 -11 -143 114 -438 328 -641 462 -184 123 -448 285 -505 311 -16
7 -28 17 -28 23 1 6 136 191 301 411 230 308 299 406 297 425 -4 34 -46 52
-134 58 -132 8 -235 -42 -326 -159 -26 -35 -48 -58 -48 -52 0 6 38 127 86 269
52 158 83 267 80 281 -8 30 -33 36 -104 24 -74 -12 -147 -48 -199 -98 -54 -52
-64 -71 -113 -208 -23 -66 -46 -123 -50 -128 -3 -4 -23 126 -43 290 -21 163
-42 303 -48 310 -18 21 -51 15 -100 -15z m-89 -2533 c24 -11 98 -36 164 -55
66 -19 121 -36 122 -37 1 -1 20 -40 43 -85 47 -94 49 -122 8 -136 -22 -8 -38
-5 -85 18 -82 40 -170 105 -247 183 -117 119 -120 164 -5 112z m213 -484 c35
-14 115 -39 178 -54 l114 -28 38 -89 c31 -72 36 -92 28 -111 -14 -31 -48 -30
-114 3 -94 48 -156 93 -242 175 -78 75 -97 104 -78 122 9 9 5 10 76 -18z m233
-479 c49 -19 116 -42 149 -51 33 -9 65 -22 72 -29 13 -13 53 -143 53 -174 0
-36 -31 -44 -76 -20 -131 70 -323 253 -307 293 7 20 8 20 109 -19z m211 -482
l142 -47 15 -46 c27 -82 30 -125 11 -145 -23 -22 -49 -16 -119 29 -65 41 -213
179 -221 206 -6 18 9 49 24 49 3 0 70 -21 148 -46z"/>
<path d="M3628 5030 c-127 -109 -308 -304 -308 -333 0 -21 288 -311 373 -376
l57 -43 93 75 c100 81 357 330 357 346 0 16 -205 225 -313 318 -56 48 -108 94
-115 101 -7 6 -17 12 -20 12 -4 0 -60 -45 -124 -100z"/>
<path d="M10650 4350 c0 -123 48 -624 75 -785 44 -263 124 -629 143 -654 24
-32 81 -61 133 -68 37 -5 45 -12 72 -54 41 -67 115 -104 207 -104 82 0 113 19
135 83 56 159 1 902 -103 1386 l-17 79 -210 64 c-115 35 -253 77 -305 92 -52
16 -103 32 -112 36 -16 6 -18 -1 -18 -75z"/>
<path d="M6290 4293 c-288 -27 -615 -107 -860 -208 -138 -57 -130 -31 -130
-400 l0 -314 58 -68 c74 -85 342 -346 405 -393 25 -19 45 -39 43 -45 -4 -15
-140 -43 -266 -54 -241 -22 -486 34 -592 135 -21 19 -57 67 -80 107 -23 40
-66 115 -97 167 -148 256 -291 426 -486 582 -128 101 -326 203 -465 239 -75
19 -102 21 -225 16 -469 -20 -939 -279 -1168 -644 -45 -71 -95 -203 -112 -298
-24 -127 -17 -372 14 -467 38 -119 135 -222 274 -291 115 -58 119 -59 576
-189 196 -56 371 -126 400 -162 22 -26 8 -50 -49 -78 -69 -35 -164 -64 -305
-93 -229 -49 -335 -59 -605 -59 -245 -1 -259 0 -352 26 -171 47 -261 96 -368
202 -204 202 -225 542 -59 966 22 58 43 117 46 133 11 57 9 57 -326 57 -168 0
-312 -4 -318 -8 -35 -22 -143 -318 -180 -491 -25 -117 -27 -143 -28 -371 0
-201 3 -259 18 -325 82 -361 248 -610 522 -782 341 -214 945 -280 1480 -162
230 51 507 166 681 281 281 188 431 466 451 834 7 151 -6 232 -58 340 -108
228 -373 377 -848 480 -385 83 -451 104 -451 148 0 62 147 135 325 163 122 18
361 13 446 -11 189 -53 348 -178 485 -378 27 -40 52 -77 57 -83 4 -5 31 -41
59 -80 73 -98 97 -125 226 -253 188 -187 272 -240 481 -306 351 -111 724 -112
1111 -5 175 49 482 175 537 221 10 8 51 -7 155 -55 355 -163 652 -225 943
-198 229 22 376 56 498 118 l48 24 67 -20 c215 -64 538 -129 773 -157 169 -19
539 -16 599 6 51 19 106 66 190 164 139 162 206 272 254 418 36 107 66 276 66
369 0 175 -83 464 -182 638 -132 230 -348 402 -589 468 -98 27 -309 24 -412
-5 -92 -26 -219 -88 -302 -147 -195 -139 -408 -434 -629 -872 -93 -185 -99
-193 -139 -211 -163 -71 -415 -84 -639 -31 -48 11 -90 24 -92 27 -2 4 31 36
74 72 101 83 354 339 374 378 9 17 29 115 46 219 17 103 37 228 45 277 29 171
22 183 -130 244 -259 103 -552 169 -854 192 -126 9 -350 11 -431 3z m620 -568
c69 -14 128 -29 132 -33 8 -8 -531 -554 -543 -550 -4 2 -74 66 -155 144 -82
77 -206 194 -276 259 -111 102 -141 135 -124 135 2 0 47 11 99 25 171 46 261
54 512 50 201 -3 246 -7 355 -30z m2323 -264 c106 -51 202 -190 265 -385 37
-113 71 -261 61 -270 -7 -6 -555 52 -733 78 -179 27 -226 38 -226 54 0 16 81
185 118 247 90 152 218 268 326 296 49 13 142 3 189 -20z"/>
<path d="M6362 1133 l3 -318 73 -3 72 -4 1 204 c1 234 -9 237 94 -27 35 -88
69 -164 77 -169 23 -14 47 0 62 36 7 18 42 106 77 196 l64 163 5 -198 5 -198
80 0 80 0 3 318 2 317 -108 0 -108 0 -64 -176 c-34 -96 -67 -171 -71 -167 -4
4 -35 82 -67 173 l-60 165 -111 3 -111 3 2 -318z"/>
<path d="M7491 1142 c-56 -170 -101 -314 -101 -320 0 -17 134 -16 148 1 5 6
16 35 24 62 l14 50 110 3 110 3 20 -63 20 -63 74 -3 c40 -2 79 -1 86 2 9 3 5
27 -16 93 -16 48 -61 190 -101 316 l-73 227 -108 0 -107 0 -100 -308z m233 48
c15 -52 29 -103 32 -112 5 -16 -3 -18 -65 -18 -50 0 -71 4 -71 12 0 27 64 228
70 221 3 -4 19 -51 34 -103z"/>
<path d="M8339 1155 c-1 -162 -2 -305 -2 -317 -1 -22 3 -23 71 -26 l72 -3 0
208 c1 241 -9 238 110 33 43 -74 92 -159 110 -187 l31 -53 80 0 79 0 0 320 0
320 -75 0 -75 0 -2 -184 -3 -184 -105 184 -105 184 -92 0 -93 0 -1 -295z"/>
<path d="M9360 1258 c-123 -378 -140 -432 -140 -440 0 -10 131 -10 146 0 6 4
17 32 26 62 l15 55 110 3 111 3 19 -63 19 -63 88 -3 c81 -3 88 -1 83 15 -2 10
-27 88 -55 173 -28 85 -72 221 -98 303 l-48 147 -107 0 -107 0 -62 -192z m199
-79 c17 -59 31 -109 31 -113 0 -9 -140 -7 -140 2 -1 22 65 231 71 224 4 -4 21
-55 38 -113z"/>
</g>
</svg>
